HIERARCHY
ROOT Hips
{
	OFFSET 0.00000 0.00000 0.00000
	CHANNELS 6 Xposition Yposition Zposition Zrotation Yrotation Xrotation 
	JOINT LHipJoint
	{
		OFFSET 0 0 0
		CHANNELS 3 Zrotation Yrotation Xrotation
		JOINT LeftUpLeg
		{
			OFFSET 1.60223 -1.58443 0.78595
			CHANNELS 3 Zrotation Yrotation Xrotation
			JOINT LeftLeg
			{
				OFFSET 2.21690 -6.09089 0.00000
				CHANNELS 3 Zrotation Yrotation Xrotation
				JOINT LeftFoot
				{
					OFFSET 2.34805 -6.45122 0.00000
					CHANNELS 3 Zrotation Yrotation Xrotation
					JOINT LeftToeBase
					{
						OFFSET 0.35452 -0.97402 1.38549
						CHANNELS 3 Zrotation Yrotation Xrotation
						End Site
						{
							OFFSET 0.00000 -0.00000 0.82816
						}
					}
				}
			}
		}
	}
	JOINT RHipJoint
	{
		OFFSET 0 0 0
		CHANNELS 3 Zrotation Yrotation Xrotation
		JOINT RightUpLeg
		{
			OFFSET -1.56524 -1.58443 0.78595
			CHANNELS 3 Zrotation Yrotation Xrotation
			JOINT RightLeg
			{
				OFFSET -2.15558 -5.92241 0.00000
				CHANNELS 3 Zrotation Yrotation Xrotation
				JOINT RightFoot
				{
					OFFSET -2.35077 -6.45870 0.00000
					CHANNELS 3 Zrotation Yrotation Xrotation
					JOINT RightToeBase
					{
						OFFSET -0.26910 -0.73935 1.33295
						CHANNELS 3 Zrotation Yrotation Xrotation
						End Site
						{
							OFFSET -0.00000 -0.00000 0.75962
						}
					}
				}
			}
		}
	}
	JOINT LowerBack
	{
		OFFSET 0 0 0
		CHANNELS 3 Zrotation Yrotation Xrotation
		JOINT Spine
		{
			OFFSET -0.05489 1.97104 -0.02993
			CHANNELS 3 Zrotation Yrotation Xrotation
			JOINT Spine1
			{
				OFFSET -0.00702 1.94230 0.13626
				CHANNELS 3 Zrotation Yrotation Xrotation
				JOINT Neck
				{
					OFFSET 0 0 0
					CHANNELS 3 Zrotation Yrotation Xrotation
					JOINT Neck1
					{
						OFFSET -0.07858 1.62869 -0.02510
						CHANNELS 3 Zrotation Yrotation Xrotation
						JOINT Head
						{
							OFFSET 0.13978 1.59213 -0.29859
							CHANNELS 3 Zrotation Yrotation Xrotation
							End Site
							{
								OFFSET 0.05353 1.64420 -0.10000
							}
						}
					}
				}
				JOINT LeftShoulder
				{
					OFFSET 0 0 0
					CHANNELS 3 Zrotation Yrotation Xrotation
					JOINT LeftArm
					{
						OFFSET 3.48263 1.15278 0.52941
						CHANNELS 3 Zrotation Yrotation Xrotation
						JOINT LeftForeArm
						{
							OFFSET 4.59207 -0.00000 -0.00000
							CHANNELS 3 Zrotation Yrotation Xrotation
							JOINT LeftHand
							{
								OFFSET 2.98109 -0.00000 -0.00000
								CHANNELS 3 Zrotation Yrotation Xrotation
								JOINT LeftFingerBase
								{
									OFFSET 0 0 0
									CHANNELS 3 Zrotation Yrotation Xrotation
									JOINT LeftHandIndex1
									{
										OFFSET 0.48020 -0.00000 -0.00000
										CHANNELS 3 Zrotation Yrotation Xrotation
										End Site
										{
											OFFSET 0.38715 -0.00000 -0.00000
										}
									}
								}
								JOINT LThumb
								{
									OFFSET 0 0 0
									CHANNELS 3 Zrotation Yrotation Xrotation
									End Site
									{
										OFFSET 0.39306 -0.00000 0.39306
									}
								}
							}
						}
					}
				}
				JOINT RightShoulder
				{
					OFFSET 0 0 0
					CHANNELS 3 Zrotation Yrotation Xrotation
					JOINT RightArm
					{
						OFFSET -3.52496 1.12722 0.24548
						CHANNELS 3 Zrotation Yrotation Xrotation
						JOINT RightForeArm
						{
							OFFSET -4.76508 -0.00000 -0.00000
							CHANNELS 3 Zrotation Yrotation Xrotation
							JOINT RightHand
							{
								OFFSET -2.78902 -0.00000 -0.00000
								CHANNELS 3 Zrotation Yrotation Xrotation
								JOINT RightFingerBase
								{
									OFFSET 0 0 0
									CHANNELS 3 Zrotation Yrotation Xrotation
									JOINT RightHandIndex1
									{
										OFFSET -0.72130 -0.00000 -0.00000
										CHANNELS 3 Zrotation Yrotation Xrotation
										End Site
										{
											OFFSET -0.58153 -0.00000 -0.00000
										}
									}
								}
								JOINT RThumb
								{
									OFFSET 0 0 0
									CHANNELS 3 Zrotation Yrotation Xrotation
									End Site
									{
										OFFSET -0.59041 -0.00000 0.59041
									}
								}
							}
						}
					}
				}
			}
		}
	}
}
MOTION
Frames: 7
Frame Time: 0.0083682
0.00 0.00 0.00 0 0 0 0 0 0 -21 0 0 0 0 0 0 0 0 0 0 0 0 0 0 21 0 0 0 0 0 0 0 0 0 0 0 0 0 0 0 0 0 0 0 0 0 0 -16 0 0 21 0 0 11 0 0 0 -8 0 0 0 0 0 0 0 0 0 0 0 0 0 0 0 0 0 0 0 0 8 0 0 0 0 0 0 0 0 0 0 0 0 0 0 0 0 0
0.00 0.00 0.00 6.7385 -73.3049 -1.4590 0.0000 0.0000 0.0000 -20.4663 -12.0293 -14.0743 3.0481 10.7725 31.5163 1.1095 -13.1319 -19.6559 1.5943 -7.9643 -22.6056 0.0000 0.0000 0.0000 18.6023 -0.8606 -9.5096 -1.4709 -7.6639 21.6978 -1.8500 -13.6368 -33.6483 -0.1434 2.4408 -6.7254 -2.6126 4.4422 -3.7093 -1.3230 5.8092 -5.6111 0.1006 2.9282 -3.8452 -9.9558 -3.5350 3.2610 12.9686 -5.2057 1.2366 5.5472 -2.7153 0.4284 -0.0000 -0.0000 0.0000 -96.9339 13.4892 0.5343 20.3459 -31.0568 -5.7087 -0.0000 -0.0000 15.8839 24.6488 41.2920 16.8466 -7.1250 0.0000 -0.0000 -19.9203 73.1735 -13.4427 -0.0000 -0.0000 0.0000 99.4512 -2.7629 0.7809 -15.4425 24.7589 -3.4091 0.0000 0.0000 4.0471 12.3262 43.9499 8.6235 7.1250 -0.0000 -0.0000 23.8111 11.4574 30.5303
0.00 0.00 0.00 73.9983 -86.9118 -71.6600 0.0000 0.0000 0.0000 -28.8364 -6.2575 -12.1686 3.1877 10.9928 32.2556 2.0264 -6.3825 -25.6569 0.2907 -3.4675 -9.5831 0.0000 0.0000 0.0000 9.7146 7.4755 -17.6599 -4.4714 -12.7626 38.4862 -1.1280 -8.0305 -24.4695 -0.7901 5.6742 -15.8420 -6.0201 3.0381 -1.2142 -0.5572 3.9120 -4.0221 2.6888 2.1117 -3.8549 -10.9872 -5.9770 -0.4861 13.3095 -8.7935 6.6658 5.5420 -4.3482 3.1191 -0.0000 -0.0000 0.0000 -99.0514 9.1968 6.0532 19.8522 -30.4639 -5.4562 -0.0000 -0.0000 17.4985 26.8237 42.2657 18.7826 -7.1250 0.0000 -0.0000 -18.7009 74.8296 -13.2622 -0.0000 -0.0000 0.0000 97.7241 -4.4889 -10.1239 -13.5586 22.1002 -2.6598 0.0000 0.0000 9.1220 7.2420 50.4130 5.5932 7.1250 -0.0000 -0.0000 21.7792 17.6796 29.1227
0.00 0.00 0.00 130.9280 -84.0185 -129.5390 0.0000 0.0000 0.0000 -31.9656 3.4599 -0.3472 1.4785 7.6829 21.7551 2.1090 -6.4586 -26.1902 0.5553 -4.7735 -13.2636 0.0000 0.0000 0.0000 16.1908 8.9638 -29.5081 -2.1054 -9.0822 26.0529 -0.7482 -6.1925 -19.7398 -1.1577 6.8310 -19.2155 -8.0348 0.3007 1.4956 -1.9728 -0.0482 -3.2739 2.4533 0.1686 -4.2555 -9.4576 -3.5196 -3.6420 15.9239 -5.7815 8.3701 6.2219 -2.6240 3.8015 -0.0000 -0.0000 0.0000 -96.6939 9.9314 36.8027 35.6813 -45.2925 -15.2956 -0.0000 -0.0000 4.9208 30.9404 44.0346 22.6200 -7.1250 0.0000 -0.0000 -16.1799 77.9852 -12.5124 -0.0000 -0.0000 0.0000 98.7715 -9.4113 -18.4738 -16.0050 25.5274 -3.6481 0.0000 0.0000 3.3957 8.9373 43.1832 6.1425 7.1250 -0.0000 -0.0000 22.2947 10.7979 28.0695
0.00 0.00 0.00 193.7500 -86.6640 -190.8860 0.0000 0.0000 0.0000 -24.5214 0.9334 -0.5457 4.2265 12.4558 37.3641 0.9751 -1.7283 -18.1624 2.9477 -10.6099 -30.9753 0.0000 0.0000 0.0000 24.8913 1.8070 -23.2735 -2.1352 -9.1422 26.2413 -1.2949 1.3306 -21.1207 -0.8462 5.8674 -16.4001 -3.1753 0.5213 -3.7608 -0.4457 0.6275 -4.6411 1.3300 0.3544 -2.7019 -9.4579 -3.8030 -3.4846 14.9266 -6.4259 11.0123 5.8822 -2.9458 4.6134 -0.0000 -0.0000 0.0000 -96.5151 11.4986 39.5947 27.4107 -38.5680 -9.7541 -0.0000 -0.0000 9.6670 23.3893 42.0650 16.1603 -7.1250 0.0000 -0.0000 -23.0495 73.4027 -15.7221 -0.0000 -0.0000 0.0000 100.9959 -9.0212 -7.2565 -19.5845 30.1384 -5.3211 0.0000 -0.0000 -4.0132 10.6394 40.9730 7.0223 7.1250 -0.0000 -0.0000 23.0843 8.6821 28.5448
0.00 0.00 0.00 219.7680 -87.0132 -217.8060 0.0000 0.0000 0.0000 -19.8811 3.3117 -11.1947 8.9722 16.7898 55.9938 0.0508 -1.8776 -4.0206 2.1898 -9.2508 -26.5830 0.0000 0.0000 0.0000 26.7665 -0.6724 -21.1472 -2.2680 -9.4033 27.0652 -1.5004 2.7216 -22.4370 -0.4130 4.1251 -11.4289 -1.2228 1.2448 -2.4283 -0.5553 1.5609 -4.4440 0.1086 0.7708 -3.2246 -10.2186 -4.4850 -3.5149 14.6919 -7.2949 11.2990 5.8772 -3.4002 4.8379 -0.0000 -0.0000 0.0000 -97.3633 10.0046 27.7310 22.0505 -33.0340 -6.6133 -0.0000 -0.0000 16.5362 22.5539 41.4175 15.3629 -7.1250 0.0000 -0.0000 -22.9219 72.5461 -15.2140 -0.0000 -0.0000 0.0000 101.3179 -7.9340 1.5930 -23.6490 34.7909 -7.5053 0.0000 -0.0000 -9.3356 9.3794 40.9552 6.1793 7.1250 -0.0000 -0.0000 22.4996 8.6903 27.7013
0.00 0.00 0.00 270.8260 -85.9973 -269.8590 0.0000 0.0000 0.0000 -14.2231 -0.9046 -28.0786 13.1257 18.8271 69.5154 0.4672 7.6706 -17.9365 1.1568 -6.8284 -19.2081 0.0000 0.0000 0.0000 29.4838 -1.6809 -15.7618 -1.9604 -8.7831 25.1192 -1.6696 0.1058 -24.4244 -0.1490 2.4877 -6.8557 0.7780 3.3491 1.1344 -0.4631 4.4332 -4.4687 -1.1553 2.1353 -5.1559 -10.5493 -6.5719 -2.0921 14.8675 -10.1997 10.5385 5.8006 -4.8966 4.7764 -0.0000 -0.0000 0.0000 -95.9049 9.6065 10.2861 19.3053 -29.7963 -5.1817 -0.0000 -0.0000 17.9330 23.9827 42.0925 16.6049 -7.1250 0.0000 -0.0000 -22.3157 73.6397 -15.3206 -0.0000 -0.0000 0.0000 97.9544 -1.3578 11.9891 -30.8624 41.6212 -11.9783 0.0000 -0.0000 -13.9873 6.8870 42.3008 4.6473 7.1250 -0.0000 -0.0000 21.3444 10.0429 26.4738
